<svg width="377" height="61" viewBox="0 0 377 61" fill="none" xmlns="http://www.w3.org/2000/svg">
<path d="M79.68 18.984C78.656 18.5573 77.5253 18.216 76.288 17.96C75.0933 17.704 73.5147 17.576 71.552 17.576C69.376 17.576 67.648 18.1307 66.368 19.24C65.088 20.3067 64.448 21.5227 64.448 22.888C64.448 24.2533 65.0453 25.4907 66.24 26.6C67.4347 27.7093 69.76 28.6693 73.216 29.48C76.288 30.1627 78.656 31.0373 80.32 32.104C82.0267 33.1707 83.2213 34.3867 83.904 35.752C84.5867 37.0747 84.928 38.5467 84.928 40.168C84.928 41.7467 84.5227 43.2613 83.712 44.712C82.944 46.12 81.664 47.2933 79.872 48.232C78.1227 49.128 75.776 49.576 72.832 49.576C68.6507 49.576 64.7893 48.5947 61.248 46.632C60.6933 46.2907 60.416 45.8213 60.416 45.224C60.416 44.84 60.5653 44.4773 60.864 44.136C61.1627 43.7947 61.5467 43.624 62.016 43.624C62.272 43.624 62.528 43.688 62.784 43.816C65.8133 45.5227 69.1627 46.376 72.832 46.376C75.7333 46.376 77.9307 45.7787 79.424 44.584C80.96 43.3467 81.728 41.8747 81.728 40.168C81.728 38.376 81.0027 36.8827 79.552 35.688C78.144 34.4933 75.8187 33.4907 72.576 32.68C69.5467 31.912 67.2 31.0373 65.536 30.056C63.9147 29.0747 62.784 27.9653 62.144 26.728C61.5467 25.4907 61.248 24.1253 61.248 22.632C61.248 21.2667 61.632 19.9653 62.4 18.728C63.2107 17.448 64.384 16.4027 65.92 15.592C67.456 14.7813 69.3333 14.376 71.552 14.376C73.8987 14.376 75.776 14.568 77.184 14.952C78.6347 15.2933 80.1493 15.784 81.728 16.424C82.4107 16.68 82.752 17.1707 82.752 17.896C82.752 18.3227 82.5813 18.7067 82.24 19.048C81.9413 19.3467 81.5787 19.496 81.152 19.496C81.0667 19.496 80.9387 19.4747 80.768 19.432C80.5973 19.3467 80.2347 19.1973 79.68 18.984ZM97.497 49C97.0703 49 96.6863 48.8507 96.345 48.552C96.0463 48.2107 95.897 47.8267 95.897 47.4V16.36C95.897 15.8907 96.0463 15.5067 96.345 15.208C96.6863 14.9093 97.0703 14.76 97.497 14.76H106.649C109.166 14.76 111.364 15.272 113.241 16.296C115.118 17.2773 116.569 18.6213 117.593 20.328C118.66 22.0347 119.193 23.9973 119.193 26.216C119.193 28.264 118.724 30.1627 117.785 31.912C116.889 33.6613 115.502 35.0693 113.625 36.136C111.79 37.2027 109.465 37.736 106.649 37.736H99.097V47.4C99.097 47.8267 98.9477 48.2107 98.649 48.552C98.3503 48.8507 97.9663 49 97.497 49ZM99.097 17.96V34.536H106.649C109.678 34.536 111.982 33.7467 113.561 32.168C115.182 30.5467 115.993 28.5627 115.993 26.216C115.993 23.7413 115.118 21.7573 113.369 20.264C111.62 18.728 109.38 17.96 106.649 17.96H99.097ZM152.32 49C151.595 49 151.104 48.6587 150.848 47.976C150.421 46.824 149.909 45.544 149.312 44.136C148.715 42.728 148.075 41.256 147.392 39.72H129.344C128.747 41.256 128.171 42.728 127.616 44.136C127.104 45.5013 126.635 46.76 126.208 47.912C126.08 48.2533 125.867 48.5307 125.568 48.744C125.269 48.9147 124.949 49 124.608 49C124.224 49 123.861 48.8507 123.52 48.552C123.221 48.2107 123.072 47.8053 123.072 47.336C123.072 47.208 123.093 47.0373 123.136 46.824C123.221 46.568 123.413 46.0773 123.712 45.352C124.437 43.432 125.291 41.2347 126.272 38.76C127.296 36.2853 128.384 33.704 129.536 31.016C130.688 28.328 131.861 25.6187 133.056 22.888C134.251 20.1573 135.403 17.576 136.512 15.144C136.811 14.504 137.323 14.184 138.048 14.184H138.304C139.072 14.184 139.584 14.4827 139.84 15.08C140.992 17.5547 142.208 20.2213 143.488 23.08C144.811 25.9387 146.091 28.776 147.328 31.592C148.565 34.3653 149.696 36.968 150.72 39.4C151.744 41.7893 152.576 43.7733 153.216 45.352C153.557 46.12 153.749 46.632 153.792 46.888C153.877 47.144 153.92 47.3147 153.92 47.4C153.92 47.8267 153.749 48.2107 153.408 48.552C153.109 48.8507 152.747 49 152.32 49ZM146.048 36.52C144.811 33.6613 143.509 30.7387 142.144 27.752C140.779 24.7653 139.456 21.928 138.176 19.24C136.981 21.9707 135.723 24.8293 134.4 27.816C133.12 30.76 131.883 33.6613 130.688 36.52H146.048ZM186.125 19.048C184.034 17.9387 181.389 17.384 178.189 17.384C175.629 17.384 173.261 18.0027 171.085 19.24C168.951 20.4773 167.223 22.2053 165.901 24.424C164.578 26.6 163.917 29.16 163.917 32.104C163.917 34.792 164.493 37.224 165.645 39.4C166.797 41.5333 168.461 43.24 170.637 44.52C172.855 45.7573 175.501 46.376 178.573 46.376C180.109 46.376 181.538 46.2267 182.861 45.928C184.226 45.6293 185.442 45.2027 186.509 44.648C186.722 44.52 186.957 44.456 187.213 44.456C187.682 44.456 188.066 44.6053 188.365 44.904C188.663 45.2027 188.812 45.5867 188.812 46.056C188.812 46.7387 188.514 47.208 187.917 47.464C186.637 48.1467 185.207 48.6587 183.629 49C182.05 49.384 180.365 49.576 178.573 49.576C174.818 49.576 171.597 48.808 168.909 47.272C166.263 45.736 164.237 43.6453 162.829 41C161.421 38.3547 160.717 35.3893 160.717 32.104C160.717 28.52 161.527 25.384 163.149 22.696C164.77 20.008 166.903 17.9173 169.549 16.424C172.194 14.9307 175.074 14.184 178.189 14.184C182.029 14.184 185.186 14.8667 187.661 16.232C188.215 16.5733 188.493 17.0427 188.493 17.64C188.493 18.024 188.343 18.3867 188.045 18.728C187.746 19.0693 187.362 19.24 186.893 19.24C186.637 19.24 186.381 19.176 186.125 19.048ZM200.935 49C200.508 49 200.124 48.8507 199.783 48.552C199.484 48.2107 199.335 47.8267 199.335 47.4V16.36C199.335 15.9333 199.463 15.5707 199.719 15.272C200.017 14.9307 200.359 14.76 200.743 14.76H218.663C219.132 14.76 219.516 14.9093 219.815 15.208C220.113 15.5067 220.263 15.8907 220.263 16.36C220.263 16.7867 220.113 17.1707 219.815 17.512C219.516 17.8107 219.132 17.96 218.663 17.96H202.535V29.096H215.911C216.38 29.096 216.764 29.2453 217.063 29.544C217.361 29.8427 217.511 30.2267 217.511 30.696C217.511 31.1227 217.361 31.5067 217.063 31.848C216.764 32.1467 216.38 32.296 215.911 32.296H202.535V45.8H218.791C219.26 45.8 219.644 45.9493 219.943 46.248C220.241 46.5467 220.391 46.9307 220.391 47.4C220.391 47.8267 220.241 48.2107 219.943 48.552C219.644 48.8507 219.26 49 218.791 49H200.935ZM232.122 49C231.695 49 231.311 48.8507 230.97 48.552C230.671 48.2107 230.522 47.8267 230.522 47.4V16.36C230.522 15.8907 230.671 15.5067 230.97 15.208C231.311 14.9093 231.695 14.76 232.122 14.76H241.018C242.895 14.76 244.474 15.0373 245.754 15.592C247.034 16.1467 248.079 16.808 248.89 17.576C249.615 18.3013 250.191 19.2187 250.618 20.328C251.045 21.3947 251.258 22.44 251.258 23.464C251.258 24.616 251.045 25.7253 250.618 26.792C250.191 27.816 249.615 28.6907 248.89 29.416C248.762 29.544 248.613 29.6933 248.442 29.864C248.314 29.992 248.143 30.12 247.93 30.248C249.381 30.8453 250.575 31.6133 251.514 32.552C253.391 34.4293 254.33 36.6693 254.33 39.272C254.33 40.424 254.117 41.576 253.69 42.728C253.263 43.8373 252.602 44.84 251.706 45.736C250.767 46.6747 249.53 47.464 247.994 48.104C246.458 48.7013 244.474 49 242.042 49H232.122ZM241.594 29.16C242.703 29.0747 243.685 28.84 244.538 28.456C245.434 28.0293 246.117 27.5813 246.586 27.112C247.567 26.216 248.058 25 248.058 23.464C248.058 22.056 247.567 20.8613 246.586 19.88C246.031 19.2827 245.285 18.8133 244.346 18.472C243.45 18.1307 242.341 17.96 241.018 17.96H233.722V29.16H241.594ZM233.722 32.36V45.8H242.042C243.919 45.8 245.434 45.5867 246.586 45.16C247.781 44.7333 248.719 44.1573 249.402 43.432C250.554 42.28 251.13 40.8933 251.13 39.272C251.13 37.608 250.49 36.136 249.21 34.856C247.546 33.192 245.221 32.36 242.234 32.36H233.722ZM278.671 14.184C281.7 14.184 284.452 14.9307 286.927 16.424C289.444 17.9173 291.428 20.008 292.879 22.696C294.372 25.3413 295.119 28.4133 295.119 31.912C295.119 35.24 294.457 38.248 293.135 40.936C291.855 43.5813 289.977 45.6933 287.503 47.272C285.071 48.808 282.127 49.576 278.671 49.576C275.428 49.576 272.548 48.808 270.031 47.272C267.513 45.6933 265.529 43.5813 264.079 40.936C262.671 38.2907 261.967 35.3467 261.967 32.104C261.967 28.52 262.671 25.384 264.079 22.696C265.487 20.008 267.428 17.9173 269.903 16.424C272.42 14.9307 275.343 14.184 278.671 14.184ZM278.671 17.384C275.983 17.384 273.615 18.024 271.567 19.304C269.561 20.5413 267.983 22.2693 266.831 24.488C265.721 26.664 265.167 29.2027 265.167 32.104C265.167 34.7067 265.721 37.096 266.831 39.272C267.983 41.448 269.583 43.176 271.631 44.456C273.679 45.736 276.025 46.376 278.671 46.376C281.487 46.376 283.876 45.736 285.839 44.456C287.844 43.176 289.359 41.448 290.382 39.272C291.407 37.0533 291.919 34.6 291.919 31.912C291.919 29.096 291.321 26.6 290.127 24.424C288.975 22.248 287.396 20.5413 285.391 19.304C283.385 18.024 281.145 17.384 278.671 17.384ZM320.233 14.184C323.262 14.184 326.014 14.9307 328.489 16.424C331.006 17.9173 332.99 20.008 334.441 22.696C335.934 25.3413 336.681 28.4133 336.681 31.912C336.681 35.24 336.02 38.248 334.697 40.936C333.417 43.5813 331.54 45.6933 329.065 47.272C326.633 48.808 323.689 49.576 320.233 49.576C316.99 49.576 314.11 48.808 311.593 47.272C309.076 45.6933 307.092 43.5813 305.641 40.936C304.233 38.2907 303.529 35.3467 303.529 32.104C303.529 28.52 304.233 25.384 305.641 22.696C307.049 20.008 308.99 17.9173 311.465 16.424C313.982 14.9307 316.905 14.184 320.233 14.184ZM320.233 17.384C317.545 17.384 315.177 18.024 313.129 19.304C311.124 20.5413 309.545 22.2693 308.393 24.488C307.284 26.664 306.729 29.2027 306.729 32.104C306.729 34.7067 307.284 37.096 308.393 39.272C309.545 41.448 311.145 43.176 313.193 44.456C315.241 45.736 317.588 46.376 320.233 46.376C323.049 46.376 325.438 45.736 327.401 44.456C329.406 43.176 330.921 41.448 331.945 39.272C332.969 37.0533 333.481 34.6 333.481 31.912C333.481 29.096 332.884 26.6 331.689 24.424C330.537 22.248 328.958 20.5413 326.953 19.304C324.948 18.024 322.708 17.384 320.233 17.384ZM371.219 49C370.749 49 370.344 48.808 370.003 48.424C369.192 47.4853 368.189 46.3333 366.995 44.968C365.843 43.56 364.605 42.0667 363.283 40.488C362.003 38.9093 360.723 37.3733 359.443 35.88C358.205 34.344 357.096 32.9787 356.115 31.784C354.835 32.9787 353.661 34.0667 352.595 35.048C351.528 35.9867 350.675 36.7547 350.035 37.352V47.4C350.035 47.8267 349.885 48.2107 349.587 48.552C349.288 48.8507 348.904 49 348.435 49C348.008 49 347.624 48.8507 347.283 48.552C346.984 48.2107 346.835 47.8267 346.835 47.4V16.36C346.835 15.8907 346.984 15.5067 347.283 15.208C347.624 14.9093 348.008 14.76 348.435 14.76C348.904 14.76 349.288 14.9093 349.587 15.208C349.885 15.5067 350.035 15.8907 350.035 16.36V33.064C351.229 31.9547 352.616 30.6747 354.195 29.224C355.816 27.7307 357.501 26.1733 359.251 24.552C361 22.888 362.707 21.2667 364.371 19.688C366.035 18.0667 367.507 16.5947 368.787 15.272C369.128 14.9307 369.512 14.76 369.939 14.76C370.365 14.76 370.728 14.9307 371.027 15.272C371.368 15.5707 371.539 15.9333 371.539 16.36C371.539 16.7013 371.389 17.064 371.091 17.448C369.427 19.1973 367.443 21.1813 365.139 23.4C362.877 25.576 360.659 27.6667 358.483 29.672C359.464 30.824 360.573 32.168 361.811 33.704C363.091 35.24 364.392 36.7973 365.715 38.376C367.037 39.9547 368.275 41.448 369.427 42.856C370.621 44.264 371.624 45.4373 372.435 46.376C372.691 46.632 372.819 46.9733 372.819 47.4C372.819 47.784 372.669 48.1467 372.371 48.488C372.072 48.8293 371.688 49 371.219 49Z" fill="#9901E0"/>
<path d="M79.68 18.984L79.2954 19.9071L79.3081 19.9124L79.321 19.9173L79.68 18.984ZM76.288 17.96L76.0785 18.9378L76.0854 18.9393L76.288 17.96ZM66.368 19.24L67.0082 20.0082L67.0156 20.002L67.0229 19.9957L66.368 19.24ZM66.24 26.6L66.9205 25.8672L66.9205 25.8672L66.24 26.6ZM73.216 29.48L72.9876 30.4536L72.9991 30.4562L73.216 29.48ZM80.32 32.104L79.7803 32.9459L79.79 32.952L80.32 32.104ZM83.904 35.752L83.0095 36.1992L83.0154 36.2106L83.904 35.752ZM83.712 44.712L82.839 44.2242L82.8341 44.2331L83.712 44.712ZM79.872 48.232L80.3279 49.1221L80.336 49.1178L79.872 48.232ZM61.248 46.632L60.7239 47.4837L60.7433 47.4956L60.7633 47.5067L61.248 46.632ZM62.784 43.816L63.2748 42.9448L63.2533 42.9326L63.2312 42.9216L62.784 43.816ZM79.424 44.584L80.0487 45.3649L80.0513 45.3628L79.424 44.584ZM79.552 35.688L78.905 36.4505L78.9106 36.4553L78.9163 36.4599L79.552 35.688ZM72.576 32.68L72.3303 33.6493L72.3335 33.6501L72.576 32.68ZM65.536 30.056L65.0182 30.9116L65.028 30.9174L65.536 30.056ZM62.144 26.728L61.2434 27.1627L61.2494 27.1752L61.2558 27.1874L62.144 26.728ZM62.4 18.728L61.5551 18.1929L61.5504 18.2006L62.4 18.728ZM65.92 15.592L65.4532 14.7076L65.4532 14.7076L65.92 15.592ZM77.184 14.952L76.9209 15.9168L76.9378 15.9214L76.955 15.9254L77.184 14.952ZM81.728 16.424L81.3523 17.3507L81.3645 17.3557L81.3769 17.3603L81.728 16.424ZM80.768 19.432L80.3208 20.3264L80.419 20.3755L80.5255 20.4021L80.768 19.432ZM80.0646 18.0609C78.9744 17.6067 77.7818 17.2479 76.4906 16.9807L76.0854 18.9393C77.2688 19.1841 78.3376 19.508 79.2954 19.9071L80.0646 18.0609ZM76.4975 16.9822C75.2054 16.7053 73.5482 16.576 71.552 16.576V18.576C73.4811 18.576 74.9812 18.7027 76.0785 18.9378L76.4975 16.9822ZM71.552 16.576C69.2056 16.576 67.2217 17.1768 65.7131 18.4843L67.0229 19.9957C68.0743 19.0845 69.5464 18.576 71.552 18.576V16.576ZM65.7278 18.4718C64.2749 19.6825 63.448 21.1609 63.448 22.888H65.448C65.448 21.8844 65.9011 20.9308 67.0082 20.0082L65.7278 18.4718ZM63.448 22.888C63.448 24.585 64.204 26.0741 65.5595 27.3328L66.9205 25.8672C65.8867 24.9073 65.448 23.9217 65.448 22.888H63.448ZM65.5595 27.3328C66.962 28.635 69.518 29.6397 72.9876 30.4536L73.4444 28.5064C70.002 27.6989 67.9074 26.7836 66.9205 25.8672L65.5595 27.3328ZM72.9991 30.4562C76.0161 31.1266 78.2561 31.9688 79.7803 32.9459L80.8597 31.2621C79.0559 30.1059 76.5599 29.1987 73.4329 28.5038L72.9991 30.4562ZM79.79 32.952C81.3891 33.9514 82.4315 35.043 83.0096 36.1992L84.7984 35.3048C84.0112 33.7303 82.6642 32.3899 80.85 31.256L79.79 32.952ZM83.0154 36.2106C83.6185 37.3791 83.928 38.6917 83.928 40.168H85.928C85.928 38.4016 85.5549 36.7702 84.7926 35.2934L83.0154 36.2106ZM83.928 40.168C83.928 41.5668 83.571 42.9145 82.8391 44.2242L84.5849 45.1998C85.4744 43.6082 85.928 41.9265 85.928 40.168H83.928ZM82.8341 44.2331C82.1828 45.4272 81.0706 46.4753 79.408 47.3462L80.336 49.1178C82.2574 48.1114 83.7052 46.8128 84.5899 45.1909L82.8341 44.2331ZM79.4161 47.342C77.8607 48.1387 75.6899 48.576 72.832 48.576V50.576C75.8621 50.576 78.3847 50.1173 80.3279 49.122L79.4161 47.342ZM72.832 48.576C68.8145 48.576 65.1208 47.635 61.7327 45.7573L60.7633 47.5067C64.4579 49.5543 68.4868 50.576 72.832 50.576V48.576ZM61.7721 45.7803C61.4811 45.6013 61.416 45.438 61.416 45.224H59.416C59.416 46.2047 59.9056 46.9801 60.7239 47.4837L61.7721 45.7803ZM61.416 45.224C61.416 45.1248 61.4469 44.9884 61.6166 44.7945L60.1114 43.4775C59.6837 43.9663 59.416 44.5552 59.416 45.224H61.416ZM61.6166 44.7945C61.7179 44.6787 61.8236 44.624 62.016 44.624V42.624C61.2698 42.624 60.6074 42.9107 60.1114 43.4775L61.6166 44.7945ZM62.016 44.624C62.0992 44.624 62.2031 44.6436 62.3368 44.7104L63.2312 42.9216C62.8529 42.7324 62.4448 42.624 62.016 42.624V44.624ZM62.2932 44.6872C65.4807 46.483 69.0006 47.376 72.832 47.376V45.376C69.3248 45.376 66.146 44.5623 63.2748 42.9448L62.2932 44.6872ZM72.832 47.376C75.8484 47.376 78.3069 46.7583 80.0487 45.3649L78.7993 43.8031C77.5545 44.799 75.6182 45.376 72.832 45.376V47.376ZM80.0513 45.3628C81.7818 43.9688 82.728 42.2265 82.728 40.168H80.728C80.728 41.5229 80.1382 42.7246 78.7967 43.8052L80.0513 45.3628ZM82.728 40.168C82.728 38.0608 81.8561 36.2901 80.1877 34.9161L78.9163 36.4599C80.1492 37.4753 80.728 38.6912 80.728 40.168H82.728ZM80.199 34.9255C78.6139 33.5806 76.1081 32.5323 72.8185 31.7099L72.3335 33.6501C75.5292 34.4491 77.6741 35.4061 78.905 36.4505L80.199 34.9255ZM72.8217 31.7107C69.8352 30.9535 67.5916 30.1073 66.044 29.1946L65.028 30.9174C66.8084 31.9674 69.2581 32.8705 72.3303 33.6493L72.8217 31.7107ZM66.0538 29.2005C64.5352 28.2814 63.5623 27.2934 63.0322 26.2686L61.2558 27.1874C62.0057 28.6372 63.2941 29.868 65.0182 30.9115L66.0538 29.2005ZM63.0446 26.2932C62.5182 25.203 62.248 23.9881 62.248 22.632H60.248C60.248 24.2626 60.5751 25.7783 61.2434 27.1627L63.0446 26.2932ZM62.248 22.632C62.248 21.4656 62.5731 20.3454 63.2496 19.2554L61.5504 18.2006C60.6909 19.5853 60.248 21.0678 60.248 22.632H62.248ZM63.2448 19.2631C63.9492 18.1509 64.9822 17.2177 66.3868 16.4764L65.4532 14.7076C63.7858 15.5876 62.4722 16.7451 61.5552 18.1929L63.2448 19.2631ZM66.3868 16.4764C67.7445 15.7598 69.4521 15.376 71.552 15.376V13.376C69.2146 13.376 67.1675 13.8029 65.4532 14.7076L66.3868 16.4764ZM71.552 15.376C73.8567 15.376 75.6344 15.5659 76.9209 15.9168L77.4471 13.9872C75.9176 13.5701 73.9407 13.376 71.552 13.376V15.376ZM76.955 15.9254C78.3491 16.2535 79.8146 16.7274 81.3523 17.3507L82.1037 15.4973C80.484 14.8406 78.9202 14.3332 77.413 13.9786L76.955 15.9254ZM81.3769 17.3603C81.5705 17.4329 81.6437 17.5099 81.6751 17.5551C81.7062 17.5998 81.752 17.6932 81.752 17.896H83.752C83.752 17.3734 83.6271 16.8589 83.3169 16.4129C83.007 15.9674 82.5682 15.6711 82.0791 15.4877L81.3769 17.3603ZM81.752 17.896C81.752 18.0218 81.7135 18.1602 81.5329 18.3409L82.9471 19.7551C83.4491 19.2531 83.752 18.6236 83.752 17.896H81.752ZM81.5329 18.3409C81.4239 18.4499 81.3165 18.496 81.152 18.496V20.496C81.8409 20.496 82.4588 20.2434 82.9471 19.7551L81.5329 18.3409ZM81.152 18.496C81.171 18.496 81.1811 18.4971 81.1795 18.497C81.1785 18.4969 81.1712 18.4961 81.1564 18.4936C81.126 18.4885 81.0784 18.4788 81.0105 18.4619L80.5255 20.4021C80.7102 20.4483 80.9375 20.496 81.152 20.496V18.496ZM81.2152 18.5376C80.9938 18.4269 80.5848 18.2606 80.039 18.0507L79.321 19.9173C79.8845 20.1341 80.2009 20.2665 80.3208 20.3264L81.2152 18.5376ZM96.345 48.552L95.5924 49.2105L95.6363 49.2607L95.6865 49.3046L96.345 48.552ZM96.345 15.208L95.6865 14.4554L95.6614 14.4773L95.6379 14.5009L96.345 15.208ZM113.241 16.296L112.762 17.1739L112.77 17.1781L112.778 17.1822L113.241 16.296ZM117.593 20.328L116.736 20.8425L116.74 20.8503L116.745 20.858L117.593 20.328ZM117.785 31.912L116.904 31.4392L116.899 31.4476L116.895 31.4561L117.785 31.912ZM113.625 36.136L113.131 35.2665L113.122 35.2715L113.625 36.136ZM99.097 37.736V36.736H98.097V37.736H99.097ZM98.649 48.552L99.3561 49.2591L99.3797 49.2356L99.4016 49.2105L98.649 48.552ZM99.097 17.96V16.96H98.097V17.96H99.097ZM99.097 34.536H98.097V35.536H99.097V34.536ZM113.369 20.264L112.709 21.0155L112.72 21.0246L113.369 20.264ZM97.497 48C97.3287 48 97.175 47.9495 97.0035 47.7994L95.6865 49.3046C96.1976 49.7518 96.812 50 97.497 50V48ZM97.0976 47.8935C96.9475 47.722 96.897 47.5683 96.897 47.4H94.897C94.897 48.085 95.1452 48.6994 95.5924 49.2105L97.0976 47.8935ZM96.897 47.4V16.36H94.897V47.4H96.897ZM96.897 16.36C96.897 16.1236 96.9626 16.0046 97.0521 15.9151L95.6379 14.5009C95.13 15.0088 94.897 15.6577 94.897 16.36H96.897ZM97.0035 15.9606C97.175 15.8105 97.3287 15.76 97.497 15.76V13.76C96.812 13.76 96.1976 14.0082 95.6865 14.4554L97.0035 15.9606ZM97.497 15.76H106.649V13.76H97.497V15.76ZM106.649 15.76C109.029 15.76 111.056 16.2431 112.762 17.1739L113.72 15.4181C111.672 14.3009 109.304 13.76 106.649 13.76V15.76ZM112.778 17.1822C114.503 18.084 115.812 19.3039 116.736 20.8425L118.45 19.8135C117.326 17.9387 115.734 16.4707 113.704 15.4098L112.778 17.1822ZM116.745 20.858C117.702 22.3897 118.193 24.1649 118.193 26.216H120.193C120.193 23.8298 119.617 21.6796 118.441 19.798L116.745 20.858ZM118.193 26.216C118.193 28.1044 117.762 29.8399 116.904 31.4392L118.666 32.3848C119.685 30.4854 120.193 28.4236 120.193 26.216H118.193ZM116.895 31.4561C116.097 33.015 114.856 34.2863 113.131 35.2665L114.119 37.0055C116.148 35.8524 117.681 34.3077 118.675 32.3679L116.895 31.4561ZM113.122 35.2715C111.482 36.225 109.344 36.736 106.649 36.736V38.736C109.586 38.736 112.098 38.1803 114.128 37.0005L113.122 35.2715ZM106.649 36.736H99.097V38.736H106.649V36.736ZM98.097 37.736V47.4H100.097V37.736H98.097ZM98.097 47.4C98.097 47.5683 98.0465 47.722 97.8964 47.8935L99.4016 49.2105C99.8488 48.6994 100.097 48.085 100.097 47.4H98.097ZM97.9419 47.8449C97.8524 47.9344 97.7334 48 97.497 48V50C98.1993 50 98.8482 49.767 99.3561 49.2591L97.9419 47.8449ZM98.097 17.96V34.536H100.097V17.96H98.097ZM99.097 35.536H106.649V33.536H99.097V35.536ZM106.649 35.536C109.846 35.536 112.443 34.7004 114.268 32.8751L112.854 31.4609C111.522 32.793 109.51 33.536 106.649 33.536V35.536ZM114.268 32.8751C116.082 31.0614 116.993 28.8209 116.993 26.216H114.993C114.993 28.3044 114.283 30.032 112.854 31.4609L114.268 32.8751ZM116.993 26.216C116.993 23.4739 116.009 21.2025 114.018 19.5034L112.72 21.0246C114.228 22.3121 114.993 24.0087 114.993 26.216H116.993ZM114.029 19.5126C112.066 17.7893 109.578 16.96 106.649 16.96V18.96C109.181 18.96 111.173 19.6667 112.709 21.0154L114.029 19.5126ZM106.649 16.96H99.097V18.96H106.649V16.96ZM150.848 47.976L149.91 48.3233L149.912 48.3271L150.848 47.976ZM149.312 44.136L150.233 43.7454L150.233 43.7454L149.312 44.136ZM147.392 39.72L148.306 39.3139L148.042 38.72H147.392V39.72ZM129.344 39.72V38.72H128.66L128.412 39.3576L129.344 39.72ZM127.616 44.136L126.686 43.7695L126.683 43.7772L126.68 43.7849L127.616 44.136ZM126.208 47.912L127.144 48.2631L127.146 48.2593L126.208 47.912ZM125.568 48.744L126.064 49.6122L126.108 49.5871L126.149 49.5577L125.568 48.744ZM123.52 48.552L122.767 49.2105L122.811 49.2607L122.861 49.3046L123.52 48.552ZM123.136 46.824L122.187 46.5078L122.168 46.5668L122.155 46.6279L123.136 46.824ZM123.712 45.352L124.637 45.7327L124.642 45.7192L124.647 45.7054L123.712 45.352ZM126.272 38.76L125.348 38.3776L125.345 38.3845L125.342 38.3914L126.272 38.76ZM129.536 31.016L128.617 30.6221L128.617 30.6221L129.536 31.016ZM136.512 15.144L135.606 14.7211L135.602 14.729L136.512 15.144ZM139.84 15.08L138.921 15.4739L138.927 15.4881L138.933 15.502L139.84 15.08ZM143.488 23.08L142.575 23.4887L142.58 23.4999L143.488 23.08ZM147.328 31.592L146.412 31.9943L146.415 31.9994L147.328 31.592ZM150.72 39.4L149.798 39.7881L149.801 39.7939L150.72 39.4ZM153.216 45.352L152.289 45.7277L152.295 45.743L152.302 45.7581L153.216 45.352ZM153.792 46.888L152.806 47.0524L152.819 47.1298L152.843 47.2042L153.792 46.888ZM153.408 48.552L152.701 47.8449L152.701 47.8449L153.408 48.552ZM146.048 36.52V37.52H147.57L146.966 36.1228L146.048 36.52ZM138.176 19.24L139.079 18.8101L138.137 16.8332L137.26 18.8392L138.176 19.24ZM134.4 27.816L133.486 27.4111L133.483 27.4173L134.4 27.816ZM130.688 36.52L129.765 36.1344L129.186 37.52H130.688V36.52ZM152.32 48C152.117 48 152.024 47.9542 151.979 47.9231C151.934 47.8917 151.857 47.8185 151.784 47.6249L149.912 48.3271C150.095 48.8162 150.391 49.255 150.837 49.5649C151.283 49.8751 151.797 50 152.32 50V48ZM151.786 47.6287C151.353 46.4591 150.835 45.1644 150.233 43.7454L148.391 44.5265C148.984 45.9236 149.49 47.1889 149.91 48.3233L151.786 47.6287ZM150.233 43.7454C149.633 42.3318 148.991 40.8545 148.306 39.3139L146.478 40.1261C147.159 41.6575 147.797 43.1242 148.391 44.5265L150.233 43.7454ZM147.392 38.72H129.344V40.72H147.392V38.72ZM128.412 39.3576C127.815 40.8923 127.24 42.3629 126.686 43.7695L128.546 44.5025C129.102 43.0931 129.678 41.6197 130.276 40.0824L128.412 39.3576ZM126.68 43.7849C126.167 45.1513 125.697 46.4112 125.27 47.5647L127.146 48.2593C127.572 47.1088 128.041 45.8514 128.552 44.4871L126.68 43.7849ZM125.272 47.5609C125.214 47.7148 125.125 47.8316 124.987 47.9303L126.149 49.5577C126.608 49.2297 126.946 48.7919 127.144 48.2631L125.272 47.5609ZM125.072 47.8758C124.923 47.9608 124.774 48 124.608 48V50C125.125 50 125.616 49.8685 126.064 49.6122L125.072 47.8758ZM124.608 48C124.509 48 124.372 47.9691 124.179 47.7994L122.861 49.3046C123.35 49.7323 123.939 50 124.608 50V48ZM124.273 47.8935C124.139 47.7413 124.072 47.5723 124.072 47.336H122.072C122.072 48.0383 122.303 48.6801 122.767 49.2105L124.273 47.8935ZM124.072 47.336C124.072 47.3038 124.079 47.2069 124.117 47.0201L122.155 46.6279C122.107 46.8677 122.072 47.1122 122.072 47.336H124.072ZM124.085 47.1402C124.157 46.9221 124.336 46.4627 124.637 45.7327L122.787 44.9713C122.491 45.692 122.285 46.2139 122.187 46.5078L124.085 47.1402ZM124.647 45.7054C125.37 43.7917 126.222 41.5996 127.202 39.1286L125.342 38.3914C124.36 40.8697 123.504 43.0723 122.777 44.9986L124.647 45.7054ZM127.196 39.1424C128.218 36.6719 129.305 34.0944 130.455 31.4099L128.617 30.6221C127.463 33.3136 126.374 35.8988 125.348 38.3776L127.196 39.1424ZM130.455 31.4099C131.606 28.7243 132.778 26.0172 133.972 23.2888L132.14 22.4872C130.944 25.2201 129.77 27.9317 128.617 30.6221L130.455 31.4099ZM133.972 23.2888C135.165 20.5624 136.315 17.9858 137.422 15.559L135.602 14.729C134.49 17.1662 133.336 19.7523 132.14 22.4872L133.972 23.2888ZM137.418 15.5669C137.5 15.3916 137.584 15.3132 137.65 15.272C137.718 15.2297 137.835 15.184 138.048 15.184V13.184C137.536 13.184 137.034 13.2983 136.59 13.576C136.144 13.8548 135.823 14.2564 135.606 14.7211L137.418 15.5669ZM138.048 15.184H138.304V13.184H138.048V15.184ZM138.304 15.184C138.562 15.184 138.696 15.2343 138.76 15.2718C138.813 15.3026 138.869 15.3523 138.921 15.4739L140.759 14.6861C140.555 14.2104 140.227 13.8121 139.768 13.5442C139.32 13.283 138.814 13.184 138.304 13.184V15.184ZM138.933 15.502C140.083 17.9717 141.297 20.6338 142.575 23.4887L144.401 22.6713C143.119 19.8088 141.901 17.1377 140.747 14.658L138.933 15.502ZM142.58 23.4999C143.9 26.3529 145.178 29.1843 146.412 31.9943L148.244 31.1897C147.004 28.3677 145.721 25.5245 144.396 22.6601L142.58 23.4999ZM146.415 31.9994C147.65 34.7673 148.777 37.3634 149.798 39.7881L151.642 39.0119C150.615 36.5726 149.481 33.9634 148.241 31.1846L146.415 31.9994ZM149.801 39.7939C150.823 42.18 151.653 44.1574 152.289 45.7277L154.143 44.9763C153.499 43.3893 152.665 41.3987 151.639 39.0061L149.801 39.7939ZM152.302 45.7581C152.469 46.1325 152.593 46.4327 152.68 46.6631C152.723 46.7781 152.754 46.8697 152.776 46.9402C152.786 46.9752 152.794 47.0023 152.799 47.0225C152.804 47.0433 152.806 47.0525 152.806 47.0524L154.778 46.7236C154.711 46.3188 154.459 45.687 154.13 44.9459L152.302 45.7581ZM152.843 47.2042C152.882 47.3193 152.905 47.3994 152.918 47.4505C152.924 47.4758 152.926 47.486 152.926 47.4844C152.925 47.4832 152.924 47.4758 152.923 47.4635C152.922 47.4517 152.92 47.4297 152.92 47.4H154.92C154.92 47.2282 154.883 47.0649 154.858 46.9655C154.828 46.8459 154.788 46.7127 154.741 46.5718L152.843 47.2042ZM152.92 47.4C152.92 47.5258 152.882 47.6642 152.701 47.8449L154.115 49.2591C154.617 48.7571 154.92 48.1276 154.92 47.4H152.92ZM152.701 47.8449C152.592 47.9539 152.484 48 152.32 48V50C153.009 50 153.627 49.7474 154.115 49.2591L152.701 47.8449ZM146.966 36.1228C145.726 33.2576 144.421 30.3287 143.053 27.3362L141.235 28.1678C142.597 31.1486 143.896 34.0651 145.13 36.9172L146.966 36.1228ZM143.053 27.3362C141.686 24.3453 140.361 21.5032 139.079 18.8101L137.273 19.6699C138.551 22.3528 139.871 25.1854 141.235 28.1678L143.053 27.3362ZM137.26 18.8392C136.066 21.5684 134.808 24.4256 133.486 27.4111L135.314 28.2209C136.638 25.233 137.897 22.373 139.092 19.6408L137.26 18.8392ZM133.483 27.4173C132.201 30.3655 130.962 33.2712 129.765 36.1344L131.611 36.9056C132.803 34.0515 134.039 31.1545 135.317 28.2147L133.483 27.4173ZM130.688 37.52H146.048V35.52H130.688V37.52ZM186.125 19.048L185.656 19.9313L185.666 19.937L185.677 19.9424L186.125 19.048ZM171.085 19.24L170.59 18.3707L170.583 18.375L171.085 19.24ZM165.901 24.424L166.755 24.9434L166.759 24.9361L165.901 24.424ZM165.645 39.4L164.761 39.8679L164.765 39.8751L165.645 39.4ZM170.637 44.52L170.129 45.3819L170.139 45.3878L170.149 45.3934L170.637 44.52ZM182.861 45.928L182.647 44.9511L182.64 44.9526L182.861 45.928ZM186.509 44.648L186.97 45.5352L186.997 45.5212L187.023 45.5055L186.509 44.648ZM188.365 44.904L189.072 44.1969L189.072 44.1969L188.365 44.904ZM187.917 47.464L187.523 46.5449L187.483 46.5616L187.446 46.5816L187.917 47.464ZM183.629 49L183.417 48.0226L183.405 48.0253L183.392 48.0283L183.629 49ZM168.909 47.272L168.406 48.1368L168.412 48.1402L168.909 47.272ZM162.829 41L161.946 41.4698L161.946 41.4698L162.829 41ZM163.149 22.696L164.005 23.2125L164.005 23.2125L163.149 22.696ZM169.549 16.424L170.04 17.2948L170.04 17.2948L169.549 16.424ZM187.661 16.232L188.185 15.3803L188.164 15.3679L188.144 15.3564L187.661 16.232ZM188.045 18.728L188.797 19.3865L188.797 19.3865L188.045 18.728ZM186.593 18.1646C184.316 16.9565 181.497 16.384 178.189 16.384V18.384C181.28 18.384 183.751 18.9208 185.656 19.9313L186.593 18.1646ZM178.189 16.384C175.459 16.384 172.92 17.0457 170.59 18.3707L171.579 20.1093C173.601 18.9596 175.798 18.384 178.189 18.384V16.384ZM170.583 18.375C168.295 19.7018 166.447 21.5543 165.042 23.9119L166.759 24.9361C167.999 22.8563 169.607 21.2529 171.586 20.105L170.583 18.375ZM165.046 23.9046C163.614 26.2603 162.917 29.0059 162.917 32.104H164.917C164.917 29.3141 165.542 26.9397 166.755 24.9434L165.046 23.9046ZM162.917 32.104C162.917 34.9398 163.526 37.5348 164.761 39.8679L166.528 38.9321C165.459 36.9132 164.917 34.6442 164.917 32.104H162.917ZM164.765 39.8751C166.007 42.1758 167.803 44.0134 170.129 45.3819L171.144 43.6581C169.118 42.4666 167.586 40.8909 166.524 38.9249L164.765 39.8751ZM170.149 45.3934C172.545 46.7295 175.366 47.376 178.573 47.376V45.376C175.635 45.376 173.165 44.7852 171.124 43.6466L170.149 45.3934ZM178.573 47.376C180.173 47.376 181.677 47.2204 183.081 46.9034L182.64 44.9526C181.399 45.2329 180.044 45.376 178.573 45.376V47.376ZM183.074 46.9049C184.512 46.5904 185.813 46.1365 186.97 45.5352L186.047 43.7608C185.07 44.2688 183.94 44.6683 182.647 44.9511L183.074 46.9049ZM187.023 45.5055C187.076 45.4735 187.132 45.456 187.213 45.456V43.456C186.781 43.456 186.367 43.5665 185.994 43.7905L187.023 45.5055ZM187.213 45.456C187.449 45.456 187.568 45.5216 187.657 45.6111L189.072 44.1969C188.564 43.689 187.915 43.456 187.213 43.456V45.456ZM187.657 45.6111C187.747 45.7006 187.812 45.8196 187.812 46.056H189.812C189.812 45.3538 189.579 44.7048 189.072 44.1969L187.657 45.6111ZM187.812 46.056C187.812 46.2505 187.771 46.3419 187.745 46.3831C187.721 46.4209 187.668 46.4824 187.523 46.5449L188.31 48.3831C188.762 48.1896 189.158 47.8884 189.432 47.4569C189.705 47.0287 189.812 46.5442 189.812 46.056H187.812ZM187.446 46.5816C186.256 47.2162 184.916 47.6986 183.417 48.0226L183.84 49.9774C185.499 49.6187 187.017 49.0772 188.387 48.3464L187.446 46.5816ZM183.392 48.0283C181.898 48.3917 180.293 48.576 178.573 48.576V50.576C180.436 50.576 182.201 50.3763 183.865 49.9717L183.392 48.0283ZM178.573 48.576C174.955 48.576 171.912 47.8368 169.405 46.4038L168.412 48.1402C171.281 49.7792 174.681 50.576 178.573 50.576V48.576ZM169.411 46.4072C166.923 44.9628 165.03 43.0074 163.711 40.5302L161.946 41.4698C163.443 44.2833 165.603 46.5092 168.406 48.1368L169.411 46.4072ZM163.711 40.5302C162.387 38.0431 161.717 35.2416 161.717 32.104H159.717C159.717 35.5371 160.454 38.6663 161.946 41.4698L163.711 40.5302ZM161.717 32.104C161.717 28.6757 162.49 25.7235 164.005 23.2125L162.292 22.1795C160.564 25.0445 159.717 28.3643 159.717 32.104H161.717ZM164.005 23.2125C165.54 20.6669 167.55 18.7005 170.04 17.2948L169.057 15.5532C166.256 17.1341 163.999 19.3491 162.292 22.1795L164.005 23.2125ZM170.04 17.2948C172.532 15.8884 175.242 15.184 178.189 15.184V13.184C174.906 13.184 171.856 13.9729 169.057 15.5532L170.04 17.2948ZM178.189 15.184C181.918 15.184 184.894 15.8479 187.177 17.1076L188.144 15.3564C185.477 13.8854 182.139 13.184 178.189 13.184V15.184ZM187.136 17.0837C187.427 17.2627 187.493 17.426 187.493 17.64H189.493C189.493 16.6593 189.003 15.8839 188.185 15.3803L187.136 17.0837ZM187.493 17.64C187.493 17.7392 187.462 17.8756 187.292 18.0695L188.797 19.3865C189.225 18.8977 189.493 18.3088 189.493 17.64H187.493ZM187.292 18.0695C187.191 18.1853 187.085 18.24 186.893 18.24V20.24C187.639 20.24 188.301 19.9533 188.797 19.3865L187.292 18.0695ZM186.893 18.24C186.809 18.24 186.705 18.2204 186.572 18.1536L185.677 19.9424C186.056 20.1316 186.464 20.24 186.893 20.24V18.24ZM199.783 48.552L199.03 49.2105L199.074 49.2607L199.124 49.3046L199.783 48.552ZM199.719 15.272L198.966 14.6135L198.959 14.6212L199.719 15.272ZM219.815 15.208L219.107 15.9151L219.107 15.9151L219.815 15.208ZM219.815 17.512L220.522 18.2191L220.545 18.1956L220.567 18.1705L219.815 17.512ZM202.535 17.96V16.96H201.535V17.96H202.535ZM202.535 29.096H201.535V30.096H202.535V29.096ZM217.063 31.848L217.77 32.5551L217.793 32.5316L217.815 32.5065L217.063 31.848ZM202.535 32.296V31.296H201.535V32.296H202.535ZM202.535 45.8H201.535V46.8H202.535V45.8ZM219.943 48.552L220.65 49.2591L220.673 49.2356L220.695 49.2105L219.943 48.552ZM200.935 48C200.766 48 200.613 47.9495 200.441 47.7994L199.124 49.3046C199.635 49.7518 200.25 50 200.935 50V48ZM200.535 47.8935C200.385 47.722 200.335 47.5683 200.335 47.4H198.335C198.335 48.085 198.583 48.6994 199.03 49.2105L200.535 47.8935ZM200.335 47.4V16.36H198.335V47.4H200.335ZM200.335 16.36C200.335 16.1503 200.391 16.0243 200.478 15.9228L198.959 14.6212C198.534 15.117 198.335 15.7164 198.335 16.36H200.335ZM200.471 15.9305C200.618 15.763 200.7 15.76 200.743 15.76V13.76C200.017 13.76 199.417 14.0984 198.966 14.6135L200.471 15.9305ZM200.743 15.76H218.663V13.76H200.743V15.76ZM218.663 15.76C218.899 15.76 219.018 15.8256 219.107 15.9151L220.522 14.5009C220.014 13.993 219.365 13.76 218.663 13.76V15.76ZM219.107 15.9151C219.197 16.0046 219.263 16.1236 219.263 16.36H221.263C221.263 15.6577 221.029 15.0088 220.522 14.5009L219.107 15.9151ZM219.263 16.36C219.263 16.5283 219.212 16.682 219.062 16.8535L220.567 18.1705C221.014 17.6594 221.263 17.045 221.263 16.36H219.263ZM219.107 16.8049C219.018 16.8944 218.899 16.96 218.663 16.96V18.96C219.365 18.96 220.014 18.727 220.522 18.2191L219.107 16.8049ZM218.663 16.96H202.535V18.96H218.663V16.96ZM201.535 17.96V29.096H203.535V17.96H201.535ZM202.535 30.096H215.911V28.096H202.535V30.096ZM215.911 30.096C216.147 30.096 216.266 30.1616 216.355 30.2511L217.77 28.8369C217.262 28.329 216.613 28.096 215.911 28.096V30.096ZM216.355 30.2511C216.445 30.3406 216.511 30.4596 216.511 30.696H218.511C218.511 29.9937 218.277 29.3448 217.77 28.8369L216.355 30.2511ZM216.511 30.696C216.511 30.8643 216.46 31.018 216.31 31.1895L217.815 32.5065C218.262 31.9954 218.511 31.381 218.511 30.696H216.511ZM216.355 31.1409C216.266 31.2304 216.147 31.296 215.911 31.296V33.296C216.613 33.296 217.262 33.063 217.77 32.5551L216.355 31.1409ZM215.911 31.296H202.535V33.296H215.911V31.296ZM201.535 32.296V45.8H203.535V32.296H201.535ZM202.535 46.8H218.791V44.8H202.535V46.8ZM218.791 46.8C219.027 46.8 219.146 46.8656 219.235 46.9551L220.65 45.5409C220.142 45.033 219.493 44.8 218.791 44.8V46.8ZM219.235 46.9551C219.325 47.0446 219.391 47.1636 219.391 47.4H221.391C221.391 46.6977 221.157 46.0488 220.65 45.5409L219.235 46.9551ZM219.391 47.4C219.391 47.5683 219.34 47.722 219.19 47.8935L220.695 49.2105C221.142 48.6994 221.391 48.085 221.391 47.4H219.391ZM219.235 47.8449C219.146 47.9344 219.027 48 218.791 48V50C219.493 50 220.142 49.767 220.65 49.2591L219.235 47.8449ZM218.791 48H200.935V50H218.791V48ZM230.97 48.552L230.217 49.2105L230.261 49.2607L230.311 49.3046L230.97 48.552ZM230.97 15.208L230.311 14.4554L230.286 14.4773L230.263 14.5009L230.97 15.208ZM248.89 17.576L249.597 16.8689L249.588 16.8593L249.578 16.85L248.89 17.576ZM250.618 20.328L249.685 20.687L249.69 20.6994L250.618 20.328ZM250.618 26.792L251.541 27.1766L251.544 27.17L251.546 27.1634L250.618 26.792ZM248.89 29.416L248.183 28.7089L248.183 28.7089L248.89 29.416ZM248.442 29.864L247.735 29.1569L247.735 29.1569L248.442 29.864ZM247.93 30.248L247.416 29.3905L245.708 30.4147L247.549 31.1727L247.93 30.248ZM251.514 32.552L250.807 33.2591L250.807 33.2591L251.514 32.552ZM253.69 42.728L254.623 43.087L254.628 43.0753L253.69 42.728ZM251.706 45.736L252.413 46.4431L252.413 46.4431L251.706 45.736ZM247.994 48.104L248.356 49.036L248.368 49.0317L248.379 49.0271L247.994 48.104ZM241.594 29.16V30.16H241.632L241.671 30.1571L241.594 29.16ZM244.538 28.456L244.948 29.3679L244.958 29.3635L244.968 29.3589L244.538 28.456ZM246.586 27.112L245.912 26.3735L245.895 26.3888L245.879 26.4049L246.586 27.112ZM246.586 19.88L245.853 20.5604L245.866 20.574L245.879 20.5871L246.586 19.88ZM244.346 18.472L243.99 19.4065L243.997 19.4092L244.004 19.4118L244.346 18.472ZM233.722 17.96V16.96H232.722V17.96H233.722ZM233.722 29.16H232.722V30.16H233.722V29.16ZM233.722 32.36V31.36H232.722V32.36H233.722ZM233.722 45.8H232.722V46.8H233.722V45.8ZM246.586 45.16L246.25 44.2182L246.239 44.2223L246.586 45.16ZM249.402 43.432L248.695 42.7249L248.684 42.7356L248.674 42.7466L249.402 43.432ZM249.21 34.856L249.917 34.1489L249.21 34.856ZM232.122 48C231.954 48 231.8 47.9495 231.629 47.7994L230.311 49.3046C230.823 49.7518 231.437 50 232.122 50V48ZM231.723 47.8935C231.572 47.722 231.522 47.5683 231.522 47.4H229.522C229.522 48.085 229.77 48.6994 230.217 49.2105L231.723 47.8935ZM231.522 47.4V16.36H229.522V47.4H231.522ZM231.522 16.36C231.522 16.1236 231.588 16.0046 231.677 15.9151L230.263 14.5009C229.755 15.0088 229.522 15.6577 229.522 16.36H231.522ZM231.629 15.9606C231.8 15.8105 231.954 15.76 232.122 15.76V13.76C231.437 13.76 230.823 14.0082 230.311 14.4554L231.629 15.9606ZM232.122 15.76H241.018V13.76H232.122V15.76ZM241.018 15.76C242.803 15.76 244.237 16.0246 245.356 16.5096L246.152 14.6744C244.711 14.0501 242.987 13.76 241.018 13.76V15.76ZM245.356 16.5096C246.555 17.0289 247.495 17.6315 248.202 18.302L249.578 16.85C248.664 15.9845 247.513 15.2644 246.152 14.6744L245.356 16.5096ZM248.183 18.2831C248.795 18.895 249.3 19.6877 249.685 20.687L251.551 19.969C251.082 18.7497 250.436 17.7076 249.597 16.8689L248.183 18.2831ZM249.69 20.6994C250.075 21.6623 250.258 22.5818 250.258 23.464H252.258C252.258 22.2982 252.015 21.127 251.546 19.9566L249.69 20.6994ZM250.258 23.464C250.258 24.4891 250.069 25.4724 249.69 26.4206L251.546 27.1634C252.021 25.9783 252.258 24.7429 252.258 23.464H250.258ZM249.695 26.4074C249.314 27.3207 248.809 28.0832 248.183 28.7089L249.597 30.1231C250.422 29.2981 251.068 28.3113 251.541 27.1766L249.695 26.4074ZM248.183 28.7089C248.055 28.8369 247.906 28.9862 247.735 29.1569L249.149 30.5711C249.32 30.4004 249.469 30.2511 249.597 30.1231L248.183 28.7089ZM247.735 29.1569C247.682 29.2101 247.583 29.2901 247.416 29.3905L248.444 31.1055C248.704 30.9499 248.946 30.7739 249.149 30.5711L247.735 29.1569ZM247.549 31.1727C248.9 31.7287 249.977 32.4292 250.807 33.2591L252.221 31.8449C251.174 30.7975 249.862 29.9619 248.311 29.3233L247.549 31.1727ZM250.807 33.2591C252.501 34.9531 253.33 36.9405 253.33 39.272H255.33C255.33 36.3982 254.282 33.9055 252.221 31.8449L250.807 33.2591ZM253.33 39.272C253.33 40.2978 253.14 41.3324 252.752 42.3807L254.628 43.0753C255.093 41.8196 255.33 40.5502 255.33 39.272H253.33ZM252.757 42.369C252.383 43.3393 251.803 44.2252 250.999 45.0289L252.413 46.4431C253.401 45.4548 254.143 44.3354 254.623 43.087L252.757 42.369ZM250.999 45.0289C250.173 45.855 249.054 46.5789 247.609 47.1809L248.379 49.0271C250.006 48.3491 251.362 47.4943 252.413 46.4431L250.999 45.0289ZM247.632 47.172C246.252 47.7084 244.404 48 242.042 48V50C244.544 50 246.664 49.6943 248.356 49.036L247.632 47.172ZM242.042 48H232.122V50H242.042V48ZM241.671 30.1571C242.874 30.0645 243.972 29.8074 244.948 29.3679L244.128 27.5441C243.398 27.8726 242.533 28.0848 241.517 28.1629L241.671 30.1571ZM244.968 29.3589C245.921 28.905 246.714 28.3984 247.293 27.8191L245.879 26.4049C245.52 26.7642 244.947 27.1536 244.108 27.5531L244.968 29.3589ZM247.26 27.8505C248.482 26.7348 249.058 25.2329 249.058 23.464H247.058C247.058 24.7671 246.652 25.6972 245.912 26.3735L247.26 27.8505ZM249.058 23.464C249.058 21.7951 248.465 20.3448 247.293 19.1729L245.879 20.5871C246.67 21.3779 247.058 22.3169 247.058 23.464H249.058ZM247.319 19.1995C246.635 18.4627 245.742 17.9157 244.688 17.5322L244.004 19.4118C244.827 19.7109 245.428 20.1027 245.853 20.5604L247.319 19.1995ZM244.702 17.5375C243.658 17.1398 242.419 16.96 241.018 16.96V18.96C242.262 18.96 243.242 19.1215 243.99 19.4065L244.702 17.5375ZM241.018 16.96H233.722V18.96H241.018V16.96ZM232.722 17.96V29.16H234.722V17.96H232.722ZM233.722 30.16H241.594V28.16H233.722V30.16ZM232.722 32.36V45.8H234.722V32.36H232.722ZM233.722 46.8H242.042V44.8H233.722V46.8ZM242.042 46.8C243.982 46.8 245.628 46.5814 246.933 46.0977L246.239 44.2223C245.24 44.592 243.857 44.8 242.042 44.8V46.8ZM246.922 46.1017C248.226 45.636 249.313 44.9852 250.13 44.1174L248.674 42.7466C248.125 43.3295 247.335 43.8307 246.25 44.2183L246.922 46.1017ZM250.109 44.1391C251.448 42.8006 252.13 41.16 252.13 39.272H250.13C250.13 40.6267 249.66 41.7594 248.695 42.7249L250.109 44.1391ZM252.13 39.272C252.13 37.3182 251.366 35.5983 249.917 34.1489L248.503 35.5631C249.614 36.6737 250.13 37.8978 250.13 39.272H252.13ZM249.917 34.1489C248.018 32.2502 245.411 31.36 242.234 31.36V33.36C245.03 33.36 247.074 34.1338 248.503 35.5631L249.917 34.1489ZM242.234 31.36H233.722V33.36H242.234V31.36ZM286.927 16.424L286.41 17.2802L286.416 17.2841L286.927 16.424ZM292.879 22.696L291.998 23.1709L292.003 23.1793L292.008 23.1876L292.879 22.696ZM293.135 40.936L292.237 40.4945L292.234 40.5004L293.135 40.936ZM287.503 47.272L288.036 48.1175L288.04 48.1151L287.503 47.272ZM270.031 47.272L269.499 48.1193L269.51 48.1256L270.031 47.272ZM264.079 40.936L263.196 41.4059L263.202 41.4168L264.079 40.936ZM264.079 22.696L264.964 23.16L264.964 23.16L264.079 22.696ZM269.903 16.424L269.392 15.5639L269.386 15.5678L269.903 16.424ZM271.567 19.304L272.092 20.155L272.096 20.152L271.567 19.304ZM266.831 24.488L265.943 24.0272L265.94 24.0338L266.831 24.488ZM266.831 39.272L265.94 39.7262L265.943 39.7331L265.947 39.7399L266.831 39.272ZM285.839 44.456L285.3 43.613L285.292 43.6184L285.839 44.456ZM290.382 39.272L291.287 39.6978L291.29 39.6911L290.382 39.272ZM290.127 24.424L289.243 24.8919L289.246 24.8986L289.25 24.9053L290.127 24.424ZM285.391 19.304L284.852 20.1469L284.859 20.151L284.865 20.155L285.391 19.304ZM278.671 15.184C281.527 15.184 284.099 15.8856 286.41 17.2802L287.443 15.5678C284.805 13.9758 281.873 13.184 278.671 13.184V15.184ZM286.416 17.2841C288.771 18.6808 290.63 20.6352 291.998 23.1709L293.759 22.2211C292.226 19.3808 290.117 17.1539 287.437 15.5639L286.416 17.2841ZM292.008 23.1876C293.404 25.6615 294.119 28.5591 294.119 31.912H296.119C296.119 28.2675 295.339 25.0212 293.749 22.2044L292.008 23.1876ZM294.119 31.912C294.119 35.1041 293.485 37.9585 292.237 40.4945L294.032 41.3775C295.429 38.5375 296.119 35.3759 296.119 31.912H294.119ZM292.234 40.5004C291.035 42.9792 289.283 44.95 286.965 46.4289L288.04 48.1151C290.671 46.4366 292.674 44.1835 294.035 41.3716L292.234 40.5004ZM286.969 46.4265C284.726 47.8429 281.976 48.576 278.671 48.576V50.576C282.277 50.576 285.415 49.7731 288.036 48.1175L286.969 46.4265ZM278.671 48.576C275.593 48.576 272.896 47.8493 270.551 46.4184L269.51 48.1256C272.199 49.7667 275.263 50.576 278.671 50.576V48.576ZM270.562 46.4248C268.191 44.9382 266.325 42.9533 264.955 40.4552L263.202 41.4168C264.733 44.2094 266.835 46.4484 269.499 48.1192L270.562 46.4248ZM264.961 40.4662C263.636 37.9772 262.967 35.1966 262.967 32.104H260.967C260.967 35.4967 261.705 38.6042 263.196 41.4058L264.961 40.4662ZM262.967 32.104C262.967 28.6524 263.644 25.681 264.964 23.16L263.193 22.232C261.697 25.087 260.967 28.3876 260.967 32.104H262.967ZM264.964 23.16C266.292 20.6256 268.109 18.6742 270.419 17.2802L269.386 15.5678C266.747 17.1605 264.681 19.3904 263.193 22.232L264.964 23.16ZM270.413 17.2841C272.755 15.8943 275.497 15.184 278.671 15.184V13.184C275.188 13.184 272.084 13.967 269.392 15.5639L270.413 17.2841ZM278.671 16.384C275.817 16.384 273.261 17.0657 271.037 18.456L272.096 20.152C273.968 18.9823 276.148 18.384 278.671 18.384V16.384ZM271.041 18.453C268.873 19.7911 267.173 21.6583 265.943 24.0272L267.718 24.9488C268.792 22.8804 270.25 21.2916 272.092 20.155L271.041 18.453ZM265.94 24.0338C264.746 26.3746 264.167 29.0743 264.167 32.104H266.167C266.167 29.3311 266.696 26.9534 267.721 24.9422L265.94 24.0338ZM264.167 32.104C264.167 34.8539 264.754 37.4004 265.94 39.7262L267.721 38.8178C266.688 36.7916 266.167 34.5594 266.167 32.104H264.167ZM265.947 39.7399C267.179 42.0684 268.9 43.9288 271.101 45.304L272.16 43.608C270.265 42.4232 268.786 40.8276 267.714 38.8041L265.947 39.7399ZM271.101 45.304C273.322 46.6927 275.856 47.376 278.671 47.376V45.376C276.194 45.376 274.035 44.7793 272.16 43.608L271.101 45.304ZM278.671 47.376C281.641 47.376 284.229 46.6993 286.385 45.2936L285.292 43.6184C283.522 44.7727 281.332 45.376 278.671 45.376V47.376ZM286.377 45.2989C288.543 43.9161 290.184 42.0427 291.287 39.6978L289.478 38.8462C288.533 40.8533 287.145 42.4359 285.3 43.6131L286.377 45.2989ZM291.29 39.6911C292.381 37.3284 292.919 34.7301 292.919 31.912H290.919C290.919 34.4699 290.432 36.7783 289.475 38.8529L291.29 39.6911ZM292.919 31.912C292.919 28.9507 292.289 26.2851 291.003 23.9427L289.25 24.9053C290.353 26.9149 290.919 29.2413 290.919 31.912H292.919ZM291.01 23.9561C289.779 21.6301 288.079 19.7881 285.916 18.453L284.865 20.155C286.712 21.2946 288.17 22.8659 289.243 24.8919L291.01 23.9561ZM285.929 18.4611C283.756 17.0742 281.328 16.384 278.671 16.384V18.384C280.963 18.384 283.015 18.9738 284.852 20.1469L285.929 18.4611ZM328.489 16.424L327.972 17.2802L327.979 17.2841L328.489 16.424ZM334.441 22.696L333.561 23.1709L333.565 23.1793L333.57 23.1876L334.441 22.696ZM334.697 40.936L333.8 40.4945L333.797 40.5004L334.697 40.936ZM329.065 47.272L329.599 48.1175L329.603 48.1151L329.065 47.272ZM311.593 47.272L311.062 48.1193L311.072 48.1256L311.593 47.272ZM305.641 40.936L304.758 41.4059L304.764 41.4168L305.641 40.936ZM305.641 22.696L306.527 23.16L306.527 23.16L305.641 22.696ZM311.465 16.424L310.955 15.5639L310.948 15.5678L311.465 16.424ZM313.129 19.304L313.654 20.155L313.659 20.152L313.129 19.304ZM308.393 24.488L307.505 24.0272L307.502 24.0338L308.393 24.488ZM308.393 39.272L307.502 39.7262L307.506 39.7331L307.509 39.7399L308.393 39.272ZM327.401 44.456L326.863 43.613L326.855 43.6184L327.401 44.456ZM331.945 39.272L332.85 39.6978L332.853 39.6911L331.945 39.272ZM331.689 24.424L330.805 24.8919L330.809 24.8986L330.812 24.9053L331.689 24.424ZM326.953 19.304L326.415 20.1469L326.421 20.151L326.428 20.155L326.953 19.304ZM320.233 15.184C323.089 15.184 325.661 15.8856 327.972 17.2802L329.006 15.5678C326.367 13.9758 323.435 13.184 320.233 13.184V15.184ZM327.979 17.2841C330.333 18.6808 332.192 20.6352 333.561 23.1709L335.321 22.2211C333.788 19.3808 331.679 17.1539 328.999 15.5639L327.979 17.2841ZM333.57 23.1876C334.967 25.6615 335.681 28.5591 335.681 31.912H337.681C337.681 28.2675 336.902 25.0212 335.312 22.2044L333.57 23.1876ZM335.681 31.912C335.681 35.1041 335.048 37.9585 333.8 40.4945L335.594 41.3775C336.992 38.5375 337.681 35.3759 337.681 31.912H335.681ZM333.797 40.5004C332.597 42.9792 330.845 44.95 328.527 46.4289L329.603 48.1151C332.234 46.4366 334.237 44.1835 335.597 41.3716L333.797 40.5004ZM328.531 46.4265C326.288 47.8429 323.538 48.576 320.233 48.576V50.576C323.84 50.576 326.978 49.7731 329.599 48.1175L328.531 46.4265ZM320.233 48.576C317.155 48.576 314.459 47.8493 312.114 46.4184L311.072 48.1256C313.762 49.7667 316.825 50.576 320.233 50.576V48.576ZM312.124 46.4248C309.754 44.9382 307.888 42.9533 306.518 40.4552L304.764 41.4168C306.296 44.2094 308.398 46.4484 311.062 48.1192L312.124 46.4248ZM306.524 40.4662C305.199 37.9772 304.529 35.1966 304.529 32.104H302.529C302.529 35.4967 303.267 38.6042 304.758 41.4058L306.524 40.4662ZM304.529 32.104C304.529 28.6524 305.206 25.681 306.527 23.16L304.755 22.232C303.26 25.087 302.529 28.3876 302.529 32.104H304.529ZM306.527 23.16C307.854 20.6256 309.672 18.6742 311.982 17.2802L310.948 15.5678C308.309 17.1605 306.244 19.3904 304.755 22.232L306.527 23.16ZM311.975 17.2841C314.318 15.8943 317.059 15.184 320.233 15.184V13.184C316.751 13.184 313.647 13.967 310.955 15.5639L311.975 17.2841ZM320.233 16.384C317.379 16.384 314.823 17.0657 312.599 18.456L313.659 20.152C315.531 18.9823 317.711 18.384 320.233 18.384V16.384ZM312.604 18.453C310.435 19.7911 308.736 21.6583 307.506 24.0272L309.28 24.9488C310.354 22.8804 311.812 21.2916 313.654 20.155L312.604 18.453ZM307.502 24.0338C306.309 26.3746 305.729 29.0743 305.729 32.104H307.729C307.729 29.3311 308.259 26.9534 309.284 24.9422L307.502 24.0338ZM305.729 32.104C305.729 34.8539 306.316 37.4004 307.502 39.7262L309.284 38.8178C308.251 36.7916 307.729 34.5594 307.729 32.104H305.729ZM307.509 39.7399C308.742 42.0684 310.463 43.9288 312.663 45.304L313.723 43.608C311.827 42.4232 310.348 40.8276 309.277 38.8041L307.509 39.7399ZM312.663 45.304C314.885 46.6927 317.419 47.376 320.233 47.376V45.376C317.757 45.376 315.597 44.7793 313.723 43.608L312.663 45.304ZM320.233 47.376C323.203 47.376 325.792 46.6993 327.947 45.2936L326.855 43.6184C325.085 44.7727 322.895 45.376 320.233 45.376V47.376ZM327.939 45.2989C330.105 43.9161 331.746 42.0427 332.85 39.6978L331.04 38.8462C330.096 40.8533 328.707 42.4359 326.863 43.6131L327.939 45.2989ZM332.853 39.6911C333.943 37.3284 334.481 34.7301 334.481 31.912H332.481C332.481 34.4699 331.995 36.7783 331.037 38.8529L332.853 39.6911ZM334.481 31.912C334.481 28.9507 333.852 26.2851 332.566 23.9427L330.812 24.9053C331.916 26.9149 332.481 29.2413 332.481 31.912H334.481ZM332.573 23.9561C331.341 21.6301 329.642 19.7881 327.478 18.453L326.428 20.155C328.275 21.2946 329.733 22.8659 330.805 24.8919L332.573 23.9561ZM327.491 18.4611C325.318 17.0742 322.89 16.384 320.233 16.384V18.384C322.525 18.384 324.577 18.9738 326.415 20.1469L327.491 18.4611ZM370.003 48.424L369.246 49.0776L369.25 49.083L369.255 49.0884L370.003 48.424ZM366.995 44.968L366.221 45.6012L366.231 45.614L366.242 45.6265L366.995 44.968ZM363.283 40.488L362.506 41.1178L362.511 41.1241L362.516 41.1302L363.283 40.488ZM359.443 35.88L358.664 36.5073L358.673 36.5192L358.683 36.5308L359.443 35.88ZM356.115 31.784L356.887 31.1493L356.211 30.326L355.432 31.0529L356.115 31.784ZM352.595 35.048L353.255 35.7987L353.263 35.7914L353.272 35.7839L352.595 35.048ZM350.035 37.352L349.352 36.6209L349.035 36.9174V37.352H350.035ZM349.587 48.552L350.294 49.2591L350.317 49.2356L350.339 49.2105L349.587 48.552ZM347.283 48.552L346.53 49.2105L346.574 49.2607L346.624 49.3046L347.283 48.552ZM347.283 15.208L346.624 14.4554L346.599 14.4773L346.575 14.5009L347.283 15.208ZM349.587 15.208L348.879 15.9151L348.879 15.9151L349.587 15.208ZM350.035 33.064H349.035V35.3572L350.715 33.7968L350.035 33.064ZM354.195 29.224L354.871 29.9603L354.872 29.9595L354.195 29.224ZM359.251 24.552L359.93 25.2855L359.94 25.2766L359.251 24.552ZM364.371 19.688L365.059 20.4135L365.068 20.4042L364.371 19.688ZM368.787 15.272L368.079 14.5649L368.074 14.5707L368.068 14.5766L368.787 15.272ZM371.027 15.272L370.274 15.9305L370.318 15.9807L370.368 16.0246L371.027 15.272ZM371.091 17.448L371.815 18.1372L371.849 18.1012L371.88 18.0619L371.091 17.448ZM365.139 23.4L365.832 24.1206L365.832 24.1203L365.139 23.4ZM358.483 29.672L357.805 28.9366L357.098 29.5884L357.721 30.3205L358.483 29.672ZM361.811 33.704L361.032 34.3313L361.037 34.3378L361.042 34.3442L361.811 33.704ZM365.715 38.376L364.948 39.0182L364.948 39.0182L365.715 38.376ZM369.427 42.856L368.653 43.4892L368.658 43.4962L368.664 43.503L369.427 42.856ZM372.435 46.376L371.678 47.0296L371.702 47.0573L371.727 47.0831L372.435 46.376ZM372.371 48.488L373.123 49.1465L372.371 48.488ZM371.219 48C371.064 48 370.922 47.9528 370.75 47.7596L369.255 49.0884C369.766 49.6632 370.435 50 371.219 50V48ZM370.759 47.7704C369.947 46.8295 368.943 45.6758 367.747 44.3095L366.242 45.6265C367.436 46.9909 368.437 48.1411 369.246 49.0776L370.759 47.7704ZM367.768 44.3348C366.614 42.9234 365.374 41.427 364.049 39.8458L362.516 41.1302C363.836 42.7063 365.071 44.1966 366.221 45.6012L367.768 44.3348ZM364.059 39.8582C362.774 38.2727 361.488 36.7297 360.202 35.2292L358.683 36.5308C359.957 38.017 361.231 39.546 362.506 41.1178L364.059 39.8582ZM360.221 35.2527C358.982 33.7148 357.871 32.3469 356.887 31.1493L355.342 32.4187C356.321 33.6104 357.428 34.9732 358.664 36.5073L360.221 35.2527ZM355.432 31.0529C354.154 32.2463 352.982 33.3326 351.917 34.3121L353.272 35.7839C354.34 34.8007 355.515 33.711 356.797 32.5151L355.432 31.0529ZM351.934 34.2973C350.864 35.239 350.002 36.0142 349.352 36.6209L350.717 38.0831C351.347 37.4952 352.192 36.7344 353.255 35.7987L351.934 34.2973ZM349.035 37.352V47.4H351.035V37.352H349.035ZM349.035 47.4C349.035 47.5683 348.984 47.722 348.834 47.8935L350.339 49.2105C350.786 48.6994 351.035 48.085 351.035 47.4H349.035ZM348.879 47.8449C348.79 47.9344 348.671 48 348.435 48V50C349.137 50 349.786 49.767 350.294 49.2591L348.879 47.8449ZM348.435 48C348.266 48 348.113 47.9495 347.941 47.7994L346.624 49.3046C347.135 49.7518 347.75 50 348.435 50V48ZM348.035 47.8935C347.885 47.722 347.835 47.5683 347.835 47.4H345.835C345.835 48.085 346.083 48.6994 346.53 49.2105L348.035 47.8935ZM347.835 47.4V16.36H345.835V47.4H347.835ZM347.835 16.36C347.835 16.1236 347.9 16.0046 347.99 15.9151L346.575 14.5009C346.068 15.0088 345.835 15.6577 345.835 16.36H347.835ZM347.941 15.9606C348.113 15.8105 348.266 15.76 348.435 15.76V13.76C347.75 13.76 347.135 14.0082 346.624 14.4554L347.941 15.9606ZM348.435 15.76C348.671 15.76 348.79 15.8256 348.879 15.9151L350.294 14.5009C349.786 13.993 349.137 13.76 348.435 13.76V15.76ZM348.879 15.9151C348.969 16.0046 349.035 16.1236 349.035 16.36H351.035C351.035 15.6577 350.801 15.0088 350.294 14.5009L348.879 15.9151ZM349.035 16.36V33.064H351.035V16.36H349.035ZM350.715 33.7968C351.908 32.6889 353.293 31.4102 354.871 29.9603L353.518 28.4877C351.938 29.9392 350.55 31.2204 349.354 32.3312L350.715 33.7968ZM354.872 29.9595C356.494 28.4655 358.18 26.9074 359.93 25.2854L358.571 23.8186C356.822 25.4393 355.138 26.9959 353.517 28.4885L354.872 29.9595ZM359.94 25.2766C361.689 23.6128 363.395 21.9918 365.059 20.4135L363.682 18.9625C362.018 20.5415 360.311 22.1632 358.561 23.8274L359.94 25.2766ZM365.068 20.4042C366.738 18.7777 368.217 17.2987 369.505 15.9674L368.068 14.5766C366.796 15.8907 365.331 17.3556 363.673 18.9718L365.068 20.4042ZM369.494 15.9791C369.674 15.7985 369.813 15.76 369.939 15.76V13.76C369.211 13.76 368.581 14.0629 368.079 14.5649L369.494 15.9791ZM369.939 15.76C370.057 15.76 370.152 15.7907 370.274 15.9305L371.779 14.6135C371.304 14.0707 370.674 13.76 369.939 13.76V15.76ZM370.368 16.0246C370.508 16.1469 370.539 16.2417 370.539 16.36H372.539C372.539 15.625 372.228 14.9944 371.685 14.5194L370.368 16.0246ZM370.539 16.36C370.539 16.4017 370.52 16.5529 370.301 16.8341L371.88 18.0619C372.259 17.5751 372.539 17.0009 372.539 16.36H370.539ZM370.366 16.7588C368.715 18.4948 366.741 20.4681 364.445 22.6797L365.832 24.1203C368.144 21.8945 370.138 19.8999 371.815 18.1372L370.366 16.7588ZM364.445 22.6794C362.189 24.8507 359.975 26.9365 357.805 28.9366L359.16 30.4074C361.342 28.3969 363.566 26.3013 365.832 24.1206L364.445 22.6794ZM357.721 30.3205C358.695 31.4638 359.799 32.8005 361.032 34.3313L362.589 33.0767C361.348 31.5355 360.232 30.1842 359.244 29.0235L357.721 30.3205ZM361.042 34.3442C362.323 35.8809 363.625 37.4389 364.948 39.0182L366.481 37.7338C365.159 36.1558 363.858 34.5991 362.579 33.0638L361.042 34.3442ZM364.948 39.0182C366.268 40.5943 367.503 42.0846 368.653 43.4892L370.2 42.2228C369.046 40.8114 367.806 39.315 366.481 37.7338L364.948 39.0182ZM368.664 43.503C369.86 44.9122 370.864 46.088 371.678 47.0296L373.191 45.7224C372.383 44.7867 371.383 43.6158 370.189 42.209L368.664 43.503ZM371.727 47.0831C371.763 47.1184 371.819 47.1876 371.819 47.4H373.819C373.819 46.7591 373.618 46.1456 373.142 45.6689L371.727 47.0831ZM371.819 47.4C371.819 47.4992 371.788 47.6356 371.618 47.8295L373.123 49.1465C373.551 48.6577 373.819 48.0688 373.819 47.4H371.819ZM371.618 47.8295C371.517 47.9453 371.411 48 371.219 48V50C371.965 50 372.627 49.7133 373.123 49.1465L371.618 47.8295Z" fill="#9901E0"/>
<path d="M9.66778 30.147C8.29435 28.7735 7.60763 28.0868 7.51545 27.4219C7.43515 26.8427 7.61239 26.2573 8.00052 25.8199C8.44604 25.3177 9.39835 25.1273 11.303 24.7464L18.6319 23.2806C18.985 23.21 19.1616 23.1746 19.3262 23.1101C19.4724 23.0527 19.6113 22.9784 19.74 22.8886C19.8718 22.7967 29.1914 14.3293 31.0816 12.5943C31.2134 12.4733 31.2793 12.4127 31.3423 12.3704C31.4031 12.3297 31.4526 12.3032 31.5203 12.2755C31.5905 12.2467 31.6758 12.2261 31.8463 12.1848L44.9998 9L41.8017 22.141C41.7603 22.3111 41.7396 22.3962 41.7108 22.4662C41.6831 22.5337 41.6567 22.5831 41.616 22.6437C41.5738 22.7066 41.5134 22.7723 41.3927 22.9038C39.6594 24.792 31.1896 34.1144 31.0976 34.2462C31.0078 34.375 30.9335 34.5139 30.8762 34.66C30.8116 34.8246 30.7763 35.0012 30.7056 35.3543L29.2399 42.6833C28.8589 44.5879 28.6685 45.5402 28.1664 45.9857C27.729 46.3738 27.1436 46.5511 26.5643 46.4708C25.8994 46.3786 25.2127 45.6919 23.8393 44.3184M9.66778 30.147L16.7535 37.2327L23.8393 44.3184M9.66778 30.147L2 34L10.4999 34.66L8.24994 40.5L14.9999 38.25L13.4999 45.375L18.6319 42.6833V51L23.8393 44.3184" stroke="#9901E0" stroke-width="3" stroke-linecap="round" stroke-linejoin="round"/>
</svg>
